<svg width="24px" height="24px" viewBox="0 0 24 24">
    <path d="M12,4 C10.9,4 10,4.9 10,6 C10,7.1 10.9,8 12,8 C13.1,8 14,7.1 14,6 C14,4.9 13.1,4 12,4 Z M19,8 C20.1,8 21,7.1 21,6 C21,4.9 20.1,4 19,4 C17.9,4 17,4.9 17,6 C17,7.1 17.9,8 19,8 Z M19,14 C20.1,14 21,13.1 21,12 C21,10.9 20.1,10 19,10 C17.9,10 17,10.9 17,12 C17,13.1 17.9,14 19,14 Z M12,14 C13.1,14 14,13.1 14,12 C14,10.9 13.1,10 12,10 C10.9,10 10,10.9 10,12 C10,13.1 10.9,14 12,14 Z M5,8 C6.1,8 7,7.1 7,6 C7,4.9 6.1,4 5,4 C3.9,4 3,4.9 3,6 C3,7.1 3.9,8 5,8 Z M19,20 C20.1,20 21,19.1 21,18 C21,16.9 20.1,16 19,16 C17.9,16 17,16.9 17,18 C17,19.1 17.9,20 19,20 Z" id="Shape" fill="#000000" fill-rule="nonzero"></path>
</svg>